<?xml version="1.0" standalone="no"?>
<!DOCTYPE svg PUBLIC "-//W3C//DTD SVG 1.1//EN" "http://www.w3.org/Graphics/SVG/1.1/DTD/svg11.dtd" >
<svg xmlns="http://www.w3.org/2000/svg">
<metadata>
This is a custom SVG webfont generated by Font Squirrel.
Copyright   : Copyright c ShyFonts Type Foundry 2000 All rights reserved
Designer    : ShyFonts Type Foundry
Foundry URL : httpwwwshyfontscom
</metadata>
<defs>
<font id="webfontQHjThoSX" horiz-adv-x="1136" >
<font-face units-per-em="2048" ascent="1638" descent="-410" />
<missing-glyph horiz-adv-x="595" />
<glyph unicode=" "  horiz-adv-x="595" />
<glyph unicode="&#x09;" horiz-adv-x="595" />
<glyph unicode="&#xa0;" horiz-adv-x="595" />
<glyph unicode="!" horiz-adv-x="659" d="M158 170q0 70 51 121q55 51 121 51q68 0 119 -51t51 -121q0 -66 -51 -121q-49 -49 -119 -49q-68 0 -121 49q-51 55 -51 121zM158 1366h342l-43 -940h-256z" />
<glyph unicode="&#x22;" horiz-adv-x="905" d="M154 1366h256l-62 -512h-135zM494 1366h256l-60 -512h-135z" />
<glyph unicode="#" horiz-adv-x="1167" d="M115 614v189h178l16 186h-194v189h211l16 188h188l-18 -188h188l19 188h186l-16 -188h164v-189h-181l-16 -186h197v-189h-211l-19 -188h-186l16 188h-186l-18 -188h-189l19 188h-164zM481 803h189l16 186h-188z" />
<glyph unicode="$" horiz-adv-x="753" d="M96 0l51 303q18 -6 48 -6q47 0 83.5 30.5t36.5 75.5q0 61 -108 246q-111 187 -111 314q0 240 197 356v217h170v-160q25 4 37 4q6 0 17 1t18 1q61 0 122 -16l-55 -303q-18 6 -47 6q-27 0 -45 -8q-29 -12 -39 -23q-16 -16 -25 -34q-10 -25 -10 -46q0 -72 108.5 -258 t108.5 -307q0 -227 -190 -344v-217h-170v160q-25 -4 -37 -4q-6 0 -20.5 -1t-22.5 -1q-58 0 -117 14z" />
<glyph unicode="%" horiz-adv-x="1583" d="M109 1024q0 143 100 242q100 100 241.5 100t241.5 -100q100 -98 101 -242q0 -8 -4.5 -37t-8.5 -43l199 422l217 -100l-338 -721q104 137 275 137q145 0 241 -98q100 -100 100.5 -241.5t-100.5 -242.5q-98 -100 -241 -100q-141 0 -242 100q-98 100 -98 242q0 39 10 80 l-199 -422l-217 100l338 721q-102 -139 -274 -139q-137 0 -242 100q-100 101 -100 242zM332 1024q0 -49 34.5 -84t84 -35t84 35t34.5 84t-34.5 84t-84 35t-84 -35t-34.5 -84zM1014 342q0 -51 34.5 -86t84 -35t84 35t34.5 86q0 49 -34.5 84t-84 35t-84 -35t-34.5 -84z" />
<glyph unicode="&#x26;" horiz-adv-x="1077" d="M125 352q0 121 59.5 205t169.5 125q-197 98 -196 322q0 152 121 260q115 102 272 102h342v-342h-342q-18 0 -32.5 -6t-26.5 -19q-14 -14 -21 -28q-6 -16 -6 -32.5t6 -31t21 -28.5q12 -12 26 -18.5t33 -6.5h342v-854h-342q-164 0 -289 94q-137 100 -137 258zM465 426 q0 -16 6 -30.5t21 -28.5q12 -12 26 -18.5t33 -6.5v170q-18 0 -32.5 -6t-26.5 -19q-14 -14 -21 -28q-6 -17 -6 -33z" />
<glyph unicode="'" horiz-adv-x="493" d="M117 1366h256l-60 -512h-137z" />
<glyph unicode="(" horiz-adv-x="696" d="M121 682q0 135 8 231.5t29 204.5q41 209 133 418l299 -109q-129 -358 -129 -745q0 -385 129 -741l-299 -109q-33 74 -80 215q-29 86 -53 199q-20 109 -28.5 205t-8.5 231z" />
<glyph unicode=")" horiz-adv-x="696" d="M106 -59q127 350 127 741t-127 745l300 109q92 -217 131 -418q20 -109 28 -205q10 -119 10 -231.5t-10 -230.5q-8 -96 -28 -205q-39 -199 -131 -414z" />
<glyph unicode="*" horiz-adv-x="1001" d="M104 899l242 82l-242 82l127 219l158 -113l-16 197h256l-19 -197l158 113l129 -219l-244 -82l244 -82l-129 -219l-158 115l19 -197h-256l16 197l-158 -115z" />
<glyph unicode="+" horiz-adv-x="899" d="M66 555v256h256v256h256v-256h256v-256h-256v-256h-256v256h-256z" />
<glyph unicode="," horiz-adv-x="493" d="M117 340h256l-60 -510h-137z" />
<glyph unicode="-" d="M184 555v256h768v-256h-768z" />
<glyph unicode="." horiz-adv-x="595" d="M127 170q0 72 49 121q55 51 121 51q70 0 121 -51q49 -49 49 -121q0 -68 -49 -121q-49 -49 -121 -49q-68 0 -121 49q-49 53 -49 121z" />
<glyph unicode="/" horiz-adv-x="802" d="M57 -113l355 1665l333 -71l-354 -1665z" />
<glyph unicode="0" horiz-adv-x="1617" d="M127 682q0 289 199 494q201 207 483 206q287 0 483 -206q199 -205 199 -494q0 -287 -198.5 -491.5t-483.5 -204.5q-283 0 -483 204q-199 205 -199 492zM467 682q0 -145 98.5 -251.5t243.5 -106.5q143 0 242 106q100 111 100 252t-100 252q-98 106 -242 106 q-145 0 -244 -106q-98 -108 -98 -252z" />
<glyph unicode="1" horiz-adv-x="833" d="M184 0v342h84v682h-84v342h426v-1024h86v-342h-512z" />
<glyph unicode="2" horiz-adv-x="872" d="M172 1366q66 16 125 16q186 0 311 -118q127 -117 127 -301q0 -125 -110.5 -303.5t-110.5 -237.5v-80h219v-342h-557v412q0 117 111 299q109 180 108 247q0 49 -36.5 80t-82.5 31q-31 0 -49 -6z" />
<glyph unicode="3" horiz-adv-x="1077" d="M184 0v342h340q16 0 33 6q14 6 26.5 18.5t18.5 28.5q8 20 8 31q0 12 -8 33q-6 16 -18.5 28.5t-26.5 18.5q-16 6 -33 6h-170v342h170q16 0 33 6q14 6 26.5 18.5t18.5 28.5q8 20 8 31q0 12 -8 33q-6 16 -18.5 28.5t-26.5 18.5q-16 6 -33 6h-340v342h340q162 0 275 -100 q119 -106 119 -262q0 -223 -197 -322q231 -84 231 -330q0 -156 -139 -260q-129 -92 -289 -92h-340z" />
<glyph unicode="4" horiz-adv-x="1079" d="M127 256v1110h340v-768h86v768h342v-1366h-342v256h-426z" />
<glyph unicode="5" horiz-adv-x="872" d="M172 0l55 301q18 -6 47 -6q49 0 84 31q35 29 35 80q0 68 -108.5 248t-108.5 300v412h555v-342h-219v-80q0 -55 111 -237q111 -178 110 -304q0 -186 -127 -303q-127 -115 -311 -114q-64 0 -123 14z" />
<glyph unicode="6" horiz-adv-x="1054" d="M115 426q0 57 14 113l223 827h353l-138 -512q174 -14 287 -137q115 -127 115 -297q0 -176 -125 -307q-123 -127 -301 -127q-180 0 -303 129q-125 131 -125 311zM457 426q0 -16 6 -31q6 -16 18.5 -28.5t28.5 -18.5q14 -6 32.5 -6t33 6t26.5 18.5t19 28.5q6 14 6 30.5 t-6.5 33t-18.5 29t-26.5 18.5t-33 6t-32.5 -6t-27 -19q-14 -14 -20 -28q-6 -17 -6 -33z" />
<glyph unicode="7" horiz-adv-x="970" d="M158 0l331 1024h-299v342h736l-445 -1366h-323z" />
<glyph unicode="8" horiz-adv-x="1114" d="M129 362q0 207 180 320q-145 115 -145 303q0 166 115 281q115 117 278 116q160 0 277 -116q115 -115 114 -279q0 -188 -143 -305q178 -111 178 -322q0 -166 -133 -274q-127 -100 -293 -100q-168 0 -295 100q-133 110 -133 276zM471 418q0 -16 6 -34.5t19 -31.5 q8 -8 28 -20q14 -8 32.5 -8t33.5 8q20 12 28.5 20t16.5 31q6 18 6 35q0 18 -6 36.5t-17 28.5q-16 16 -26 21q-20 8 -35 8q-37 0 -61.5 -28.5t-24.5 -65.5zM471 946q0 -16 6 -35q6 -14 19 -28q16 -16 26 -22.5t35 -6.5t35 6t26 23q10 10 16.5 28.5t6.5 34.5q0 18 -6 37 q-8 20 -17 31q-14 14 -28 20q-16 6 -32.5 6t-33.5 -6q-14 -6 -28 -20q-12 -12 -18.5 -31t-6.5 -37z" />
<glyph unicode="9" horiz-adv-x="1052" d="M86 944q0 181 123 307q125 131 303 131q175 0 301 -129q125 -127 125 -305q0 -66 -14 -121l-224 -827h-350l135 512q-174 16 -286.5 137t-112.5 295zM426 938q0 -16 6 -31q6 -16 18.5 -28.5t27 -18.5t32.5 -6t32.5 6t26.5 19q14 14 21 28q8 20 8 31q0 12 -8 33 q-6 16 -18.5 28.5t-26.5 18.5q-16 6 -32.5 6t-33.5 -6q-14 -6 -26 -19q-14 -14 -21 -28q-6 -17 -6 -33z" />
<glyph unicode=":" horiz-adv-x="614" d="M135 170q0 70 51 121q55 51 121 51q68 0 119 -51t51 -121q0 -66 -51 -121q-49 -49 -118.5 -49t-121.5 49q-51 55 -51 121zM135 854q0 68 51.5 119t121 51t118.5 -51q51 -51 51 -119q0 -70 -51 -121t-119 -51q-66 0 -121 51q-51 51 -51 121z" />
<glyph unicode=";" horiz-adv-x="532" d="M94 854q0 68 51.5 119t121 51t118.5 -51q51 -51 51 -119q0 -70 -51 -121t-119 -51q-66 0 -121 51q-51 51 -51 121zM137 340h256l-59 -510h-137z" />
<glyph unicode="&#x3c;" horiz-adv-x="946" d="M47 682l426 428h342l-428 -428l428 -426h-342z" />
<glyph unicode="=" horiz-adv-x="1091" d="M184 385v254h768v-254h-768zM184 725v256h768v-256h-768z" />
<glyph unicode="&#x3e;" horiz-adv-x="946" d="M131 256l428 426l-428 428h342l426 -428l-426 -426h-342z" />
<glyph unicode="?" horiz-adv-x="776" d="M160 1366q66 16 123 16q188 0 313 -118q125 -117 125 -301q0 -92 -66 -181l-61 -73l-59 -74q-68 -95 -68 -209h-268q0 190 96 344l29 45q8 12 14 22.5t12 22.5q33 59 33 98q0 49 -37 80t-84 31q-25 0 -47 -6zM164 170q0 72 49 121q55 51 121 51q70 0 121 -51 q51 -49 51 -121q0 -70 -51 -121q-49 -49 -121 -49q-68 0 -121 49q-49 53 -49 121z" />
<glyph unicode="@" horiz-adv-x="1089" d="M135 342l137 682h203l137 -682h-186l-10 84h-84l-8 -84h-189zM344 555h57l-26 256zM561 854v170h385v-170h-108v-512h-170v512h-107z" />
<glyph unicode="A" horiz-adv-x="1024" d="M35 0l272 1366h410l272 -1366h-375l-18 170h-168l-18 -170h-375zM457 426h110l-55 512z" />
<glyph unicode="B" horiz-adv-x="870" d="M61 0v1366h340q162 0 275 -100q119 -106 119 -262q0 -223 -197 -322q231 -84 231 -330q0 -156 -139 -260q-129 -92 -289 -92h-340zM401 342q16 0 33 6q14 6 26.5 18.5t18.5 28.5q8 20 8 31q0 12 -8 33q-6 16 -18 28.5t-27 18.5q-16 6 -33 6v-170zM401 854q16 0 33 6 q14 6 26.5 18.5t18.5 28.5q8 20 8 31q0 12 -8 33q-6 16 -18 28.5t-27 18.5q-16 6 -33 6v-170z" />
<glyph unicode="C" horiz-adv-x="1400" d="M41 682q0 289 199 494q201 207 485 206q229 0 397 -122q172 -121 242 -342l-309 -154q-23 123 -115 201q-90 76 -215 75q-147 0 -246 -106q-96 -104 -96 -251.5t96 -252.5q98 -106 246 -106q121 0 215 77q92 78 115 201l309 -156q-74 -219 -244 -339.5t-395 -120.5 q-285 0 -485 204q-199 205 -199 492z" />
<glyph unicode="D" horiz-adv-x="1120" d="M61 0v1366h340q281 0 484 -203q201 -201 200.5 -481.5t-201 -481t-483.5 -200.5h-340zM401 342q141 0 242 100q100 98 100 240q0 143 -100 242q-100 100 -242 100v-682z" />
<glyph unicode="E" horiz-adv-x="780" d="M61 0v1366h682v-342h-342v-170h342l-342 -342v-170h342v-342h-682z" />
<glyph unicode="F" horiz-adv-x="765" d="M61 0v1366h682v-342h-340v-170h340l-340 -342v-512h-342z" />
<glyph unicode="G" horiz-adv-x="1097" d="M37 682q0 281 201 481q199 199 483 203v-342q-147 -4 -244 -100q-98 -96 -98 -242q0 -143 98 -240q98 -100 244 -100v340h340v-682h-340q-279 0 -483 201q-201 205 -201 481z" />
<glyph unicode="H" horiz-adv-x="892" d="M61 0v1366h342v-512h84v512h342v-1366h-342v512h-84v-512h-342z" />
<glyph unicode="I" horiz-adv-x="626" d="M61 0v342h86v682h-86v342h512v-342h-86v-682h86v-342h-512z" />
<glyph unicode="J" horiz-adv-x="638" d="M29 0v342h170q43 0 43 43v981h342v-981q0 -158 -115 -272q-113 -113 -270 -113h-170z" />
<glyph unicode="K" horiz-adv-x="915" d="M61 0v1366h342v-512l84 512h377l-231 -684l231 -682h-377l-84 512v-512h-342z" />
<glyph unicode="L" horiz-adv-x="763" d="M61 0v1366h342v-1024h340v-342h-682z" />
<glyph unicode="M" horiz-adv-x="1200" d="M55 0l84 1366h377l84 -512l86 512h377l84 -1366h-375v768l-172 -768l-170 768v-768h-375z" />
<glyph unicode="N" horiz-adv-x="894" d="M63 0v1366h273l153 -512v512h342v-1366h-274l-154 512v-512h-340z" />
<glyph unicode="O" horiz-adv-x="1449" d="M43 682q0 289 199 494q201 207 483 206q287 0 483 -206q201 -207 201 -494q0 -285 -201 -492q-199 -205 -483 -204q-283 0 -483 204q-199 205 -199 492zM385 682q0 -145 98.5 -251.5t241.5 -106.5q145 0 243.5 106.5t98.5 251.5q0 144 -98 252q-98 106 -244 106 q-143 0 -242 -106q-98 -108 -98 -252z" />
<glyph unicode="P" horiz-adv-x="849" d="M63 0v1366h340q174 0 301 -127t127 -301t-126 -301q-125 -125 -302 -125v-512h-340zM403 854q18 0 33 6t27 18.5t18 28.5q8 20 8 31q0 12 -8 33q-6 16 -18 28.5t-26.5 18.5t-33.5 6v-170z" />
<glyph unicode="Q" horiz-adv-x="1441" d="M37 682q0 289 199 494q201 207 483 206q287 0 483 -206q199 -205 199 -494q0 -201 -109 -375q-111 -176 -286 -260l225 -215h-512v154q-283 0 -483 204q-199 205 -199 492zM377 682q0 -145 98 -251.5t244 -106.5q143 0 242 106q100 111 100 252t-100 252 q-98 106 -242 106q-145 0 -244 -106q-98 -108 -98 -252z" />
<glyph unicode="R" horiz-adv-x="878" d="M63 0v1366h340q174 0 301 -127t127 -301q0 -207 -174 -340l174 -598h-342l-86 512v-512h-340zM403 854q18 0 33 6t27 18.5t18 28.5q8 20 8 31q0 12 -8 33q-6 16 -18 28.5t-26.5 18.5t-33.5 6v-170z" />
<glyph unicode="S" horiz-adv-x="649" d="M45 0l51 303q18 -6 47 -6q47 0 84 30.5t37 75.5q0 61 -108 246q-111 187 -111 314q0 184 125 301q129 119 313 118q57 0 123 -16l-53 -303q-18 6 -49 6q-27 0 -45 -8q-29 -12 -39 -23q-16 -16 -25 -34q-10 -25 -10 -46q0 -70 108.5 -256t108.5 -309q0 -181 -129 -295 q-127 -113 -309 -112q-60 0 -119 14z" />
<glyph unicode="T" horiz-adv-x="841" d="M37 1024v342h768v-342h-213v-1024h-342v1024h-213z" />
<glyph unicode="U" horiz-adv-x="884" d="M59 385v981h340v-981q0 -43 43 -43t43 43v981h342v-981q0 -166 -110.5 -282.5t-274.5 -116.5q-162 0 -272.5 116.5t-110.5 282.5z" />
<glyph unicode="V" horiz-adv-x="1026" d="M37 1366h375l102 -940l102 940h375l-272 -1366h-410z" />
<glyph unicode="W" horiz-adv-x="1349" d="M43 1366h375l86 -768l170 768l172 -768l84 768h377l-256 -1366h-291l-86 512l-84 -512h-291z" />
<glyph unicode="X" horiz-adv-x="1030" d="M55 0l230 682l-230 684h373l86 -512l84 512h377l-230 -684l230 -682h-377l-84 512l-86 -512h-373z" />
<glyph unicode="Y" horiz-adv-x="980" d="M43 1366h373l84 -512l86 512h375l-461 -1366h-340l178 483z" />
<glyph unicode="Z" horiz-adv-x="878" d="M55 0l332 1024h-299v342h735l-334 -1024h299v-342h-733z" />
<glyph unicode="[" horiz-adv-x="757" d="M184 -168v1704h426v-342h-86v-1024h86v-338h-426z" />
<glyph unicode="\" horiz-adv-x="802" d="M57 1481l334 71l354 -1665l-333 -71z" />
<glyph unicode="]" horiz-adv-x="796" d="M184 -168v338h84v1024h-84v342h426v-1704h-426z" />
<glyph unicode="^" horiz-adv-x="1112" d="M86 512l342 854h256l342 -854h-256l-215 535l-213 -535h-256z" />
<glyph unicode="_" horiz-adv-x="966" d="M184 0v170h596v-170h-596z" />
<glyph unicode="`" horiz-adv-x="507" d="M37 1792h256l110 -342h-137z" />
<glyph unicode="a" horiz-adv-x="1028" d="M37 0l272 1366h412l272 -1366h-377l-18 170h-168l-18 -170h-375zM459 426h112l-57 512z" />
<glyph unicode="b" horiz-adv-x="876" d="M66 0v1366h340q162 0 274 -100q119 -106 119 -262q0 -223 -197 -322q231 -84 232 -330q0 -156 -140 -260q-129 -92 -288 -92h-340zM406 342q16 0 32 6q14 6 26.5 18.5t18.5 28.5q8 20 9 31q0 12 -9 33q-6 16 -18 28.5t-27 18.5q-16 6 -32 6v-170zM406 854q16 0 32 6 q14 6 26.5 18.5t18.5 28.5q8 20 9 31q0 12 -9 33q-6 16 -18 28.5t-27 18.5q-16 6 -32 6v-170z" />
<glyph unicode="c" horiz-adv-x="753" d="M29 682q0 283 198.5 481.5t483.5 202.5v-342q-145 -4 -242 -100q-100 -98 -100 -242q0 -141 100 -240q98 -100 242 -100v-342q-279 0 -484 201q-198 200 -198 481z" />
<glyph unicode="d" horiz-adv-x="1126" d="M66 0v1366h340q281 0 483 -203q201 -201 201 -481.5t-201 -481t-483 -200.5h-340zM406 342q141 0 241 100q100 98 101 240q0 143 -101 242q-100 100 -241 100v-682z" />
<glyph unicode="e" horiz-adv-x="788" d="M66 0v1366h682v-342h-342v-170h342l-342 -342v-170h342v-342h-682z" />
<glyph unicode="f" horiz-adv-x="768" d="M66 0v1366h682v-342h-342v-170h342l-342 -342v-512h-340z" />
<glyph unicode="g" horiz-adv-x="1099" d="M39 682q0 283 198.5 481.5t483.5 202.5v-342q-143 -4 -242 -100q-100 -98 -100 -242q0 -141 100 -240q98 -100 242 -100v340h342v-682h-342q-279 0 -483 201q-199 200 -199 481z" />
<glyph unicode="h" horiz-adv-x="897" d="M66 0v1366h340v-512h86v512h342v-1366h-342v512h-86v-512h-340z" />
<glyph unicode="i" horiz-adv-x="471" d="M66 0v1366h340v-1366h-340z" />
<glyph unicode="j" horiz-adv-x="643" d="M31 0v342h170q43 0 43 43v981h342v-981q0 -158 -115 -272q-113 -113 -270 -113h-170z" />
<glyph unicode="k" horiz-adv-x="921" d="M66 0v1366h340v-512l86 512h374l-229 -684l229 -682h-374l-86 512v-512h-340z" />
<glyph unicode="l" horiz-adv-x="768" d="M66 0v1366h340v-1024h342v-342h-682z" />
<glyph unicode="m" horiz-adv-x="1204" d="M57 0l84 1366h377l84 -512l86 512h377l84 -1366h-375v768l-172 -768l-170 768v-768h-375z" />
<glyph unicode="n" horiz-adv-x="897" d="M66 0v1366h272l154 -512v512h342v-1366h-275l-153 512v-512h-340z" />
<glyph unicode="o" horiz-adv-x="1452" d="M43 682q0 287 200.5 493.5t483.5 206.5q287 0 483 -206q199 -205 199 -494q0 -287 -198.5 -491.5t-483.5 -204.5q-283 0 -483 204q-201 207 -201 492zM385 682q0 -145 98.5 -251.5t243.5 -106.5q143 0 241.5 106.5t98.5 251.5q0 144 -98 252q-98 106 -242 106 q-145 0 -244 -106q-98 -108 -98 -252z" />
<glyph unicode="p" horiz-adv-x="851" d="M66 0v1366h340q174 0 301 -127t127 -301t-127 -301q-125 -125 -301 -125v-512h-340zM406 854q16 0 32 6q14 6 26.5 18.5t18.5 28.5q8 20 9 31q0 12 -9 33q-6 16 -18 28.5t-27 18.5q-16 6 -32 6v-170z" />
<glyph unicode="q" horiz-adv-x="1445" d="M37 682q0 289 199 494q201 207 485.5 206.5t480.5 -206.5q201 -207 201 -494q0 -201 -108.5 -375t-288.5 -260l227 -215h-512v154q-285 0 -485 204q-199 205 -199 492zM379 682q0 -145 98 -251.5t244 -106.5q143 0 241.5 106.5t98.5 251.5q0 144 -98 252 q-98 106 -242 106q-145 0 -244 -106q-98 -108 -98 -252z" />
<glyph unicode="r" horiz-adv-x="880" d="M66 0v1366h340q174 0 301 -127t127 -301q0 -207 -175 -340l175 -598h-342l-86 512v-512h-340zM406 854q16 0 32 6q14 6 26.5 18.5t18.5 28.5q8 20 9 31q0 12 -9 33q-6 16 -18 28.5t-27 18.5q-16 6 -32 6v-170z" />
<glyph unicode="s" horiz-adv-x="651" d="M45 0l51 303q18 -6 49 -6q47 0 84 30.5t37 75.5q0 58 -110.5 246t-110.5 314q0 184 127 301q129 119 313 118q57 0 123 -16l-55 -303q-18 6 -47 6t-47 -8q-25 -10 -37 -23q-20 -20 -27 -34q-10 -25 -10 -46q0 -66 111 -256q109 -186 108 -309q0 -181 -129 -295 q-127 -113 -311 -112q-60 0 -119 14z" />
<glyph unicode="t" horiz-adv-x="843" d="M39 1024v342h768v-342h-215v-1024h-340v1024h-213z" />
<glyph unicode="u" horiz-adv-x="886" d="M59 385v981h342v-981q0 -43 43 -43q41 0 41 43v981h342v-981q0 -166 -110.5 -282.5t-272.5 -116.5q-164 0 -274.5 116.5t-110.5 282.5z" />
<glyph unicode="v" horiz-adv-x="1028" d="M37 1366h375l102 -940l102 940h375l-272 -1366h-410z" />
<glyph unicode="w" horiz-adv-x="1349" d="M43 1366h377l86 -768l170 768l170 -768l86 768h375l-256 -1366h-289l-86 512l-86 -512h-291z" />
<glyph unicode="x" horiz-adv-x="1032" d="M57 0l228 682l-228 684h373l84 -512l86 512h377l-232 -684l232 -682h-377l-86 512l-84 -512h-373z" />
<glyph unicode="y" horiz-adv-x="980" d="M43 1366h373l86 -512l84 512h377l-461 -1366h-342l180 483z" />
<glyph unicode="z" horiz-adv-x="878" d="M55 0l332 1024h-299v342h735l-334 -1024h299v-342h-733z" />
<glyph unicode="{" horiz-adv-x="770" d="M106 512v342h87v682h425v-342h-83v-1024h83v-338h-425v680h-87z" />
<glyph unicode="|" horiz-adv-x="712" d="M184 -168v1704h340v-1704h-340z" />
<glyph unicode="}" horiz-adv-x="802" d="M184 -168v338h84v1024h-84v342h426v-682h86v-342h-86v-680h-426z" />
<glyph unicode="~" horiz-adv-x="1081" d="M158 512v205q143 137 256 137q51 0 127 -70q74 -68 129 -67q113 0 256 137v-205q-143 -137 -256 -137q-55 0 -129 68q-74 70 -127 69q-113 0 -256 -137z" />
<glyph unicode="&#xa2;" horiz-adv-x="1497" d="M92 682q0 262 170 463t428 231v160h170v-160q205 -23 346 -141q143 -119 209 -317l-307 -154q-9 49 -31 92q-20 43 -53 78q-29 33 -74 59q-39 25 -90 37v-694q100 23 164 94q66 76 84 172l307 -156q-66 -197 -209 -315q-145 -121 -346 -139v-160h-170v160 q-258 27 -428 229q-170 205 -170 461zM434 682q0 -115 72 -217q71 -98 184 -129v694q-114 -31 -184 -129q-72 -102 -72 -219z" />
<glyph unicode="&#xa3;" horiz-adv-x="1067" d="M82 555v256h172v170q0 160 111 270q115 115 272 115h299v-342h-299q-43 0 -43 -43v-170h172v-256h-172v-213h342v-342h-682v555h-172z" />
<glyph unicode="&#xa5;" horiz-adv-x="1181" d="M129 1366h377l86 -512l84 512h377l-230 -676h152v-256h-221v-84h221v-256h-221v-94h-326v94h-221v256h221v84h-221v256h151z" />
<glyph unicode="&#xa9;" horiz-adv-x="544" d="M78 342q0 141 100 242q98 98 242 98v-170q-72 0 -121 -51q-49 -49 -49 -119q0 -72 49 -121q51 -51 121 -51v-170q-141 0 -241.5 100.5t-100.5 241.5z" />
<glyph unicode="&#xad;" d="M184 555v256h768v-256h-768z" />
<glyph unicode="&#xae;" horiz-adv-x="708" d="M184 0v682h170q88 0 152 -64q61 -61 61 -149q0 -106 -84 -170l84 -299h-170l-43 256v-256h-170zM354 426q43 0 43 43t-43 43v-86z" />
<glyph unicode="&#xb4;" horiz-adv-x="507" d="M102 1450l111 342h256l-229 -342h-138z" />
<glyph unicode="&#x2000;" horiz-adv-x="894" />
<glyph unicode="&#x2001;" horiz-adv-x="1792" />
<glyph unicode="&#x2002;" horiz-adv-x="894" />
<glyph unicode="&#x2003;" horiz-adv-x="1792" />
<glyph unicode="&#x2004;" horiz-adv-x="595" />
<glyph unicode="&#x2005;" horiz-adv-x="446" />
<glyph unicode="&#x2006;" horiz-adv-x="296" />
<glyph unicode="&#x2007;" horiz-adv-x="296" />
<glyph unicode="&#x2008;" horiz-adv-x="223" />
<glyph unicode="&#x2009;" horiz-adv-x="356" />
<glyph unicode="&#x200a;" horiz-adv-x="98" />
<glyph unicode="&#x2010;" d="M184 555v256h768v-256h-768z" />
<glyph unicode="&#x2011;" d="M184 555v256h768v-256h-768z" />
<glyph unicode="&#x2012;" d="M184 555v256h768v-256h-768z" />
<glyph unicode="&#x2013;" horiz-adv-x="796" d="M184 555v256h426v-256h-426z" />
<glyph unicode="&#x2014;" horiz-adv-x="1306" d="M184 555v256h938v-256h-938z" />
<glyph unicode="&#x2018;" horiz-adv-x="507" d="M37 1366h256l110 -512h-137z" />
<glyph unicode="&#x2019;" horiz-adv-x="507" d="M102 854l111 512h256l-229 -512h-138z" />
<glyph unicode="&#x201c;" horiz-adv-x="940" d="M94 1366h256l111 -512h-137zM434 1366h256l113 -512h-137z" />
<glyph unicode="&#x201d;" horiz-adv-x="940" d="M137 854l113 512h256l-232 -512h-137zM479 854l111 512h256l-230 -512h-137z" />
<glyph unicode="&#x2022;" horiz-adv-x="935" d="M127 682q0 144 98 252q98 106 242 106q145 0 244 -106q98 -108 98 -252q0 -145 -98.5 -251.5t-243.5 -106.5q-143 0 -241.5 106.5t-98.5 251.5z" />
<glyph unicode="&#x2026;" horiz-adv-x="1527" d="M166 170q0 72 49 121q55 51 123 51t119 -51t51 -121q0 -66 -51 -121q-49 -49 -119 -49q-72 0 -123 49q-49 53 -49 121zM594 170q0 72 49 121q51 51 121 51q68 0 119 -51q51 -49 51 -121q0 -70 -51 -121q-49 -49 -119 -49q-72 0 -121 49q-49 53 -49 121zM1020 170 q0 72 49 121q55 51 121 51q70 0 121 -51q51 -49 51 -121q0 -70 -51 -121q-49 -49 -121 -49q-68 0 -121 49q-49 53 -49 121z" />
<glyph unicode="&#x202f;" horiz-adv-x="356" />
<glyph unicode="&#x205f;" horiz-adv-x="446" />
<glyph unicode="&#x20ac;" horiz-adv-x="1699" d="M88 469v170h172q0 2 -1 6t-1 8v11v18v18v13q0 4 1 7t1 5h-172v172h203q66 215 246 350q178 135 403 135q230 0 399 -122q170 -121 242 -342l-309 -154q-20 121 -114.5 198.5t-217.5 77.5q-172 0 -272 -143h188v-172h-254q0 -4 -1 -10t-1 -8v-25v-23q0 -4 1 -10t1 -10h254 v-170h-188q102 -145 272 -145q123 0 217 77q92 78 115 201l309 -156q-76 -221 -242 -340q-170 -121 -399 -120q-223 0 -403 133q-178 132 -246 350h-203z" />
<glyph unicode="&#x2122;" horiz-adv-x="1265" d="M150 1194v172h385v-172h-107v-512h-170v512h-108zM549 682l41 684h188l43 -256l41 256h189l43 -684h-189v385l-84 -385l-86 385v-385h-186z" />
<glyph unicode="&#xe000;" horiz-adv-x="1365" d="M0 1365h1365v-1365h-1365v1365z" />
<glyph unicode="&#xfb01;" horiz-adv-x="1241" d="M836 0v1366h340v-1366h-340zM66 0v1366h682v-342h-342v-170h342l-342 -342v-512h-340z" />
<glyph unicode="&#xfb02;" horiz-adv-x="1538" d="M836 0v1366h340v-1024h342v-342h-682zM66 0v1366h682v-342h-342v-170h342l-342 -342v-512h-340z" />
<glyph unicode="&#xfb03;" horiz-adv-x="2011" d="M1606 0v1366h340v-1366h-340zM836 0v1366h682v-342h-342v-170h342l-342 -342v-512h-340zM66 0v1366h682v-342h-342v-170h342l-342 -342v-512h-340z" />
<glyph unicode="&#xfb04;" horiz-adv-x="2308" d="M1606 0v1366h340v-1024h342v-342h-682zM836 0v1366h682v-342h-342v-170h342l-342 -342v-512h-340zM66 0v1366h682v-342h-342v-170h342l-342 -342v-512h-340z" />
</font>
</defs>
</svg>
